<svg width="40" height="40" viewBox="0 0 40 40" fill="none" xmlns="http://www.w3.org/2000/svg">
<path d="M20.0117 3.60227C25.3586 3.60227 25.9918 3.62571 28.0946 3.71948C30.0489 3.80543 31.1042 4.13362 31.8077 4.40711C32.7379 4.76656 33.4102 5.20414 34.1059 5.89959C34.8095 6.60285 35.2394 7.26705 35.599 8.19691C35.8726 8.90018 36.2009 9.96288 36.2869 11.9086C36.3807 14.0184 36.4041 14.6513 36.4041 19.9883C36.4041 25.3331 36.3807 25.966 36.2869 28.068C36.2009 30.0215 35.8726 31.0764 35.599 31.7796C35.2394 32.7095 34.8016 33.3815 34.1059 34.077C33.4024 34.7802 32.7379 35.21 31.8077 35.5695C31.1042 35.8429 30.041 36.1711 28.0946 36.2571C25.984 36.3508 25.3508 36.3743 20.0117 36.3743C14.6648 36.3743 14.0317 36.3508 11.9289 36.2571C9.9746 36.1711 8.91929 35.8429 8.21575 35.5695C7.28552 35.21 6.61325 34.7724 5.91753 34.077C5.21399 33.3737 4.78405 32.7095 4.42447 31.7796C4.15087 31.0764 3.82255 30.0137 3.73656 28.068C3.64276 25.9582 3.61931 25.3253 3.61931 19.9883C3.61931 14.6435 3.64276 14.0105 3.73656 11.9086C3.82255 9.95507 4.15087 8.90018 4.42447 8.19691C4.78405 7.26705 5.22181 6.59504 5.91753 5.89959C6.62107 5.19633 7.28552 4.76656 8.21575 4.40711C8.91929 4.13362 9.98241 3.80543 11.9289 3.71948C14.0317 3.62571 14.6648 3.60227 20.0117 3.60227ZM20.0117 0C14.5789 0 13.8988 0.0234421 11.7647 0.11721C9.63846 0.210979 8.17667 0.554796 6.9103 1.04708C5.58921 1.56281 4.47137 2.24263 3.36134 3.36003C2.2435 4.46962 1.56342 5.58703 1.04749 6.89979C0.555013 8.17347 0.211061 9.62688 0.117256 11.7523C0.0234512 13.8933 0 14.5732 0 20.0039C0 25.4347 0.0234512 26.1145 0.117256 28.2477C0.211061 30.3731 0.555013 31.8343 1.04749 33.1002C1.56342 34.4208 2.2435 35.5382 3.36134 36.6478C4.47137 37.7574 5.58921 38.445 6.90248 38.9529C8.17667 39.4452 9.63064 39.789 11.7569 39.8828C13.891 39.9766 14.571 40 20.0039 40C25.4368 40 26.1169 39.9766 28.2509 39.8828C30.3772 39.789 31.839 39.4452 33.1053 38.9529C34.4186 38.445 35.5364 37.7574 36.6465 36.6478C37.7565 35.5382 38.4444 34.4208 38.9525 33.108C39.445 31.8343 39.7889 30.3809 39.8827 28.2555C39.9765 26.1223 40 25.4425 40 20.0117C40 14.581 39.9765 13.9012 39.8827 11.7679C39.7889 9.64251 39.445 8.18129 38.9525 6.91541C38.46 5.58703 37.7799 4.46962 36.6621 3.36003C35.5521 2.25044 34.4342 1.56281 33.121 1.05489C31.8468 0.56261 30.3928 0.218793 28.2666 0.125024C26.1247 0.0234421 25.4446 0 20.0117 0Z" fill="#303133"/>
<path d="M20.0117 9.72845C14.3365 9.72845 9.73227 14.3309 9.73227 20.0039C9.73227 25.6769 14.3365 30.2793 20.0117 30.2793C25.6869 30.2793 30.2912 25.6769 30.2912 20.0039C30.2912 14.3309 25.6869 9.72845 20.0117 9.72845ZM20.0117 26.6693C16.3299 26.6693 13.3438 23.6843 13.3438 20.0039C13.3438 16.3235 16.3299 13.3385 20.0117 13.3385C23.6936 13.3385 26.6797 16.3235 26.6797 20.0039C26.6797 23.6843 23.6936 26.6693 20.0117 26.6693Z" fill="#303133"/>
<path d="M33.0967 9.3216C33.0967 10.6497 32.0181 11.72 30.6973 11.72C29.3687 11.72 28.2979 10.6419 28.2979 9.3216C28.2979 7.99347 29.3765 6.92316 30.6973 6.92316C32.0181 6.92316 33.0967 8.00128 33.0967 9.3216Z" fill="#303133"/>
</svg>
