<svg width="40" height="40" viewBox="0 0 40 40" fill="none" xmlns="http://www.w3.org/2000/svg">
<path d="M20 0C8.954 0 0 8.954 0 20C0 28.474 5.272 35.71 12.712 38.624C12.538 37.042 12.378 34.614 12.782 32.888C13.146 31.328 15.126 22.946 15.126 22.946C15.126 22.946 14.528 21.748 14.528 19.978C14.528 17.196 16.14 15.122 18.146 15.122C19.852 15.122 20.676 16.404 20.676 17.938C20.676 19.654 19.584 22.22 19.02 24.596C18.548 26.588 20.018 28.21 21.982 28.21C25.536 28.21 28.268 24.462 28.268 19.052C28.268 14.264 24.828 10.916 19.914 10.916C14.224 10.916 10.884 15.184 10.884 19.596C10.884 21.314 11.546 23.158 12.372 24.16C12.536 24.358 12.558 24.532 12.51 24.734C12.358 25.366 12.022 26.724 11.956 27.002C11.87 27.368 11.666 27.446 11.288 27.268C8.79 26.104 7.228 22.452 7.228 19.52C7.228 13.212 11.812 7.416 20.444 7.416C27.382 7.416 32.774 12.36 32.774 18.968C32.774 25.862 28.428 31.408 22.396 31.408C20.37 31.408 18.464 30.354 17.812 29.112C17.812 29.112 16.808 32.93 16.566 33.868C16.114 35.604 14.896 37.784 14.08 39.112C15.95 39.686 17.938 40 20 40C31.044 40 40 31.044 40 20C40 8.956 31.046 0 20 0Z" fill="#303133"/>
</svg>
