<svg width="50" height="40" viewBox="0 0 50 40" fill="none" xmlns="http://www.w3.org/2000/svg">
<path d="M49.9969 0C48.047 1.15743 44.1348 2.73483 41.8349 3.1898C41.7674 3.2073 41.7124 3.2298 41.6474 3.2473C39.615 1.24242 36.8302 0 33.7479 0C27.5358 0 22.4986 5.03718 22.4986 11.2493C22.4986 11.5768 22.4711 12.1792 22.4986 12.4992C14.1166 12.4992 7.73702 8.10949 3.1623 2.49984C2.66483 3.74977 2.44735 5.72464 2.44735 7.57953C2.44735 11.0818 5.18468 14.5216 9.44691 16.654C8.66196 16.8564 7.79701 17.0014 6.89707 17.0014C5.44466 17.0014 3.90726 16.619 2.49984 15.459C2.49984 15.5015 2.49984 15.5415 2.49984 15.5865C2.49984 20.4812 7.69452 23.8135 12.3142 24.741C11.3768 25.2934 9.48691 25.3484 8.56447 25.3484C7.91451 25.3484 5.61465 25.0509 4.99969 24.9359C6.28461 28.9482 10.9193 31.2031 15.3365 31.283C11.8818 33.9929 9.48441 34.9978 2.40985 34.9978H0C4.46972 37.8626 10.1619 40 15.8665 40C34.4404 40 44.9972 25.8434 44.9972 12.4992C44.9972 12.2842 44.9922 11.8343 44.9847 11.3818C44.9847 11.3368 44.9972 11.2943 44.9972 11.2493C44.9972 11.1818 44.9772 11.1168 44.9772 11.0493C44.9697 10.7093 44.9622 10.3919 44.9547 10.2269C46.9296 8.80195 48.642 7.02456 49.9969 4.99969C48.1845 5.80464 46.2396 6.3446 44.1972 6.58959C46.2821 5.33967 49.2444 2.35985 49.9969 0Z" fill="#303133"/>
</svg>
